<mxfile host="65bd71144e">
    <diagram id="1phqR3J009IpgdhH7zfl" name="Page-1">
        <mxGraphModel dx="1464" dy="-840" grid="1" gridSize="10" guides="1" tooltips="1" connect="1" arrows="1" fold="1" page="1" pageScale="1" pageWidth="827" pageHeight="1169" background="#ffffff" math="0" shadow="0">
            <root>
                <mxCell id="0"/>
                <mxCell id="1" parent="0"/>
                <mxCell id="72" value="&lt;font style=&quot;font-size: 40px;&quot; face=&quot;Times New Roman&quot; color=&quot;#080707&quot;&gt;Request for login&lt;/font&gt;" style="text;strokeColor=none;align=center;fillColor=none;html=1;verticalAlign=middle;whiteSpace=wrap;rounded=0;pointerEvents=0;fontFamily=Helvetica;fontSize=12;fontColor=default;" vertex="1" parent="1">
                    <mxGeometry x="-20" y="1560" width="310" height="52.5" as="geometry"/>
                </mxCell>
                <mxCell id="73" value="&lt;font style=&quot;font-size: 40px;&quot; face=&quot;Times New Roman&quot; color=&quot;#080707&quot;&gt;Response&lt;/font&gt;" style="text;strokeColor=none;align=center;fillColor=none;html=1;verticalAlign=middle;whiteSpace=wrap;rounded=0;pointerEvents=0;fontFamily=Helvetica;fontSize=12;fontColor=default;" vertex="1" parent="1">
                    <mxGeometry x="-66" y="1710" width="310" height="52.5" as="geometry"/>
                </mxCell>
                <mxCell id="74" value="&lt;font style=&quot;font-size: 40px;&quot; face=&quot;Times New Roman&quot; color=&quot;#080707&quot;&gt;Reply&lt;/font&gt;" style="text;strokeColor=none;align=center;fillColor=none;html=1;verticalAlign=middle;whiteSpace=wrap;rounded=0;pointerEvents=0;fontFamily=Helvetica;fontSize=12;fontColor=default;" vertex="1" parent="1">
                    <mxGeometry x="517" y="1672" width="310" height="52.5" as="geometry"/>
                </mxCell>
                <mxCell id="39" value="&lt;font style=&quot;font-size: 40px;&quot; face=&quot;Times New Roman&quot; color=&quot;#080707&quot;&gt;Check Request&lt;/font&gt;" style="text;strokeColor=none;align=center;fillColor=none;html=1;verticalAlign=middle;whiteSpace=wrap;rounded=0;pointerEvents=0;fontFamily=Helvetica;fontSize=12;fontColor=default;" vertex="1" parent="1">
                    <mxGeometry x="517" y="1547.5" width="310" height="52.5" as="geometry"/>
                </mxCell>
                <mxCell id="115" value="" style="group" vertex="1" connectable="0" parent="1">
                    <mxGeometry x="300" y="1560" width="240" height="200" as="geometry"/>
                </mxCell>
                <mxCell id="116" value="" style="ellipse;whiteSpace=wrap;html=1;strokeColor=#000000;fillColor=none;" vertex="1" parent="115">
                    <mxGeometry x="7" width="233" height="200" as="geometry"/>
                </mxCell>
                <mxCell id="117" value="&lt;font style=&quot;font-size: 42px;&quot;&gt;1.0&lt;/font&gt;" style="text;strokeColor=none;align=center;fillColor=none;html=1;verticalAlign=middle;whiteSpace=wrap;rounded=0;pointerEvents=0;fontFamily=Times New Roman;fontSize=40;fontColor=#080707;" vertex="1" parent="115">
                    <mxGeometry x="93.5" y="10" width="60" height="30" as="geometry"/>
                </mxCell>
                <mxCell id="122" style="edgeStyle=none;html=1;exitX=0.057;exitY=0.199;exitDx=0;exitDy=0;entryX=0.914;entryY=0.25;entryDx=0;entryDy=0;strokeColor=#150404;fontFamily=Helvetica;fontSize=12;fontColor=default;endArrow=none;endFill=0;exitPerimeter=0;entryPerimeter=0;" edge="1" parent="115" target="116">
                    <mxGeometry relative="1" as="geometry">
                        <mxPoint x="19.99666666666701" y="51.17000000000007" as="sourcePoint"/>
                        <mxPoint x="166.13000000000022" y="50" as="targetPoint"/>
                        <Array as="points">
                            <mxPoint x="230" y="50"/>
                        </Array>
                    </mxGeometry>
                </mxCell>
                <mxCell id="118" value="&lt;font style=&quot;font-size: 40px;&quot; face=&quot;Times New Roman&quot; color=&quot;#080707&quot;&gt;Login&lt;/font&gt;" style="text;strokeColor=none;align=center;fillColor=none;html=1;verticalAlign=middle;whiteSpace=wrap;rounded=0;pointerEvents=0;fontFamily=Helvetica;fontSize=12;fontColor=default;" vertex="1" parent="115">
                    <mxGeometry x="33.5" y="90" width="180" height="52.5" as="geometry"/>
                </mxCell>
                <mxCell id="129" value="" style="group" vertex="1" connectable="0" parent="1">
                    <mxGeometry x="300" y="1910" width="240" height="200" as="geometry"/>
                </mxCell>
                <mxCell id="130" value="" style="ellipse;whiteSpace=wrap;html=1;strokeColor=#000000;fillColor=none;" vertex="1" parent="129">
                    <mxGeometry x="7" width="233" height="200" as="geometry"/>
                </mxCell>
                <mxCell id="131" value="&lt;font style=&quot;font-size: 42px;&quot;&gt;1.1&lt;/font&gt;" style="text;strokeColor=none;align=center;fillColor=none;html=1;verticalAlign=middle;whiteSpace=wrap;rounded=0;pointerEvents=0;fontFamily=Times New Roman;fontSize=40;fontColor=#080707;" vertex="1" parent="129">
                    <mxGeometry x="93.5" y="10" width="60" height="30" as="geometry"/>
                </mxCell>
                <mxCell id="132" style="edgeStyle=none;html=1;exitX=0.057;exitY=0.199;exitDx=0;exitDy=0;entryX=0.914;entryY=0.25;entryDx=0;entryDy=0;strokeColor=#150404;fontFamily=Helvetica;fontSize=12;fontColor=default;endArrow=none;endFill=0;exitPerimeter=0;entryPerimeter=0;" edge="1" parent="129" target="130">
                    <mxGeometry relative="1" as="geometry">
                        <mxPoint x="19.99666666666701" y="51.17000000000007" as="sourcePoint"/>
                        <mxPoint x="166.13000000000022" y="50" as="targetPoint"/>
                        <Array as="points">
                            <mxPoint x="230" y="50"/>
                        </Array>
                    </mxGeometry>
                </mxCell>
                <mxCell id="134" value="&lt;font style=&quot;font-size: 40px;&quot; face=&quot;Times New Roman&quot; color=&quot;#080707&quot;&gt;Register&lt;/font&gt;" style="text;strokeColor=none;align=center;fillColor=none;html=1;verticalAlign=middle;whiteSpace=wrap;rounded=0;pointerEvents=0;fontFamily=Helvetica;fontSize=12;fontColor=default;" vertex="1" parent="129">
                    <mxGeometry x="33.5" y="90" width="180" height="52.5" as="geometry"/>
                </mxCell>
                <mxCell id="135" value="" style="group" vertex="1" connectable="0" parent="1">
                    <mxGeometry x="300" y="2280" width="240" height="200" as="geometry"/>
                </mxCell>
                <mxCell id="136" value="" style="ellipse;whiteSpace=wrap;html=1;strokeColor=#000000;fillColor=none;" vertex="1" parent="135">
                    <mxGeometry x="7" width="233" height="200" as="geometry"/>
                </mxCell>
                <mxCell id="137" value="&lt;font style=&quot;font-size: 42px;&quot;&gt;1.3&lt;/font&gt;" style="text;strokeColor=none;align=center;fillColor=none;html=1;verticalAlign=middle;whiteSpace=wrap;rounded=0;pointerEvents=0;fontFamily=Times New Roman;fontSize=40;fontColor=#080707;" vertex="1" parent="135">
                    <mxGeometry x="93.5" y="10" width="60" height="30" as="geometry"/>
                </mxCell>
                <mxCell id="138" style="edgeStyle=none;html=1;exitX=0.057;exitY=0.199;exitDx=0;exitDy=0;entryX=0.914;entryY=0.25;entryDx=0;entryDy=0;strokeColor=#150404;fontFamily=Helvetica;fontSize=12;fontColor=default;endArrow=none;endFill=0;exitPerimeter=0;entryPerimeter=0;" edge="1" parent="135" target="136">
                    <mxGeometry relative="1" as="geometry">
                        <mxPoint x="19.99666666666701" y="51.17000000000007" as="sourcePoint"/>
                        <mxPoint x="166.13000000000022" y="50" as="targetPoint"/>
                        <Array as="points">
                            <mxPoint x="230" y="50"/>
                        </Array>
                    </mxGeometry>
                </mxCell>
                <mxCell id="140" value="&lt;font style=&quot;font-size: 40px;&quot; face=&quot;Times New Roman&quot; color=&quot;#080707&quot;&gt;View Student&lt;/font&gt;" style="text;strokeColor=none;align=center;fillColor=none;html=1;verticalAlign=middle;whiteSpace=wrap;rounded=0;pointerEvents=0;fontFamily=Helvetica;fontSize=12;fontColor=default;" vertex="1" parent="135">
                    <mxGeometry x="33.5" y="90" width="180" height="52.5" as="geometry"/>
                </mxCell>
                <mxCell id="141" value="" style="group" vertex="1" connectable="0" parent="1">
                    <mxGeometry x="314" y="2660" width="240" height="200" as="geometry"/>
                </mxCell>
                <mxCell id="142" value="" style="ellipse;whiteSpace=wrap;html=1;strokeColor=#000000;fillColor=none;" vertex="1" parent="141">
                    <mxGeometry x="7" width="233" height="200" as="geometry"/>
                </mxCell>
                <mxCell id="143" value="&lt;font style=&quot;font-size: 42px;&quot;&gt;1.4&lt;/font&gt;" style="text;strokeColor=none;align=center;fillColor=none;html=1;verticalAlign=middle;whiteSpace=wrap;rounded=0;pointerEvents=0;fontFamily=Times New Roman;fontSize=40;fontColor=#080707;" vertex="1" parent="141">
                    <mxGeometry x="93.5" y="10" width="60" height="30" as="geometry"/>
                </mxCell>
                <mxCell id="144" style="edgeStyle=none;html=1;exitX=0.057;exitY=0.199;exitDx=0;exitDy=0;entryX=0.914;entryY=0.25;entryDx=0;entryDy=0;strokeColor=#150404;fontFamily=Helvetica;fontSize=12;fontColor=default;endArrow=none;endFill=0;exitPerimeter=0;entryPerimeter=0;" edge="1" parent="141" target="142">
                    <mxGeometry relative="1" as="geometry">
                        <mxPoint x="19.99666666666701" y="51.17000000000007" as="sourcePoint"/>
                        <mxPoint x="166.13000000000022" y="50" as="targetPoint"/>
                        <Array as="points">
                            <mxPoint x="230" y="50"/>
                        </Array>
                    </mxGeometry>
                </mxCell>
                <mxCell id="146" value="&lt;font style=&quot;font-size: 40px;&quot; face=&quot;Times New Roman&quot; color=&quot;#080707&quot;&gt;Edit Student&lt;/font&gt;" style="text;strokeColor=none;align=center;fillColor=none;html=1;verticalAlign=middle;whiteSpace=wrap;rounded=0;pointerEvents=0;fontFamily=Helvetica;fontSize=12;fontColor=default;" vertex="1" parent="141">
                    <mxGeometry x="33.5" y="90" width="180" height="52.5" as="geometry"/>
                </mxCell>
                <mxCell id="147" value="" style="group" vertex="1" connectable="0" parent="1">
                    <mxGeometry x="321" y="3040" width="240" height="200" as="geometry"/>
                </mxCell>
                <mxCell id="148" value="" style="ellipse;whiteSpace=wrap;html=1;strokeColor=#000000;fillColor=none;" vertex="1" parent="147">
                    <mxGeometry x="7" width="233" height="200" as="geometry"/>
                </mxCell>
                <mxCell id="149" value="&lt;font style=&quot;font-size: 42px;&quot;&gt;1.5&lt;/font&gt;" style="text;strokeColor=none;align=center;fillColor=none;html=1;verticalAlign=middle;whiteSpace=wrap;rounded=0;pointerEvents=0;fontFamily=Times New Roman;fontSize=40;fontColor=#080707;" vertex="1" parent="147">
                    <mxGeometry x="93.5" y="10" width="60" height="30" as="geometry"/>
                </mxCell>
                <mxCell id="150" style="edgeStyle=none;html=1;exitX=0.057;exitY=0.199;exitDx=0;exitDy=0;entryX=0.914;entryY=0.25;entryDx=0;entryDy=0;strokeColor=#150404;fontFamily=Helvetica;fontSize=12;fontColor=default;endArrow=none;endFill=0;exitPerimeter=0;entryPerimeter=0;" edge="1" parent="147" target="148">
                    <mxGeometry relative="1" as="geometry">
                        <mxPoint x="19.99666666666701" y="51.17000000000007" as="sourcePoint"/>
                        <mxPoint x="166.13000000000022" y="50" as="targetPoint"/>
                        <Array as="points">
                            <mxPoint x="230" y="50"/>
                        </Array>
                    </mxGeometry>
                </mxCell>
                <mxCell id="152" value="&lt;font style=&quot;font-size: 40px;&quot; face=&quot;Times New Roman&quot; color=&quot;#080707&quot;&gt;Delete Student&lt;/font&gt;" style="text;strokeColor=none;align=center;fillColor=none;html=1;verticalAlign=middle;whiteSpace=wrap;rounded=0;pointerEvents=0;fontFamily=Helvetica;fontSize=12;fontColor=default;" vertex="1" parent="147">
                    <mxGeometry x="33.5" y="90" width="180" height="52.5" as="geometry"/>
                </mxCell>
                <mxCell id="161" value="" style="group" vertex="1" connectable="0" parent="1">
                    <mxGeometry x="-490" y="1600" width="460" height="110" as="geometry"/>
                </mxCell>
                <mxCell id="159" value="&lt;font style=&quot;font-size: 50px;&quot; face=&quot;Times New Roman&quot; color=&quot;#080707&quot;&gt;Admin&lt;/font&gt;" style="text;strokeColor=none;align=center;fillColor=none;html=1;verticalAlign=middle;whiteSpace=wrap;rounded=0;pointerEvents=0;fontFamily=Helvetica;fontSize=12;fontColor=default;" vertex="1" parent="161">
                    <mxGeometry x="97.25714285714285" y="28.75" width="262.85714285714283" height="56.25" as="geometry"/>
                </mxCell>
                <mxCell id="160" value="" style="whiteSpace=wrap;html=1;fillColor=none;strokeColor=#000000;strokeWidth=1;" vertex="1" parent="161">
                    <mxGeometry width="460" height="110" as="geometry"/>
                </mxCell>
                <mxCell id="162" style="edgeStyle=none;html=1;exitX=1;exitY=0.25;exitDx=0;exitDy=0;fontSize=50;strokeColor=#130101;strokeWidth=2;" edge="1" parent="1" source="160">
                    <mxGeometry relative="1" as="geometry">
                        <mxPoint x="320" y="1628" as="targetPoint"/>
                    </mxGeometry>
                </mxCell>
                <mxCell id="163" style="edgeStyle=none;html=1;exitX=0;exitY=0.5;exitDx=0;exitDy=0;strokeColor=#130101;strokeWidth=2;fontSize=50;" edge="1" parent="1">
                    <mxGeometry relative="1" as="geometry">
                        <mxPoint x="307" y="1696" as="sourcePoint"/>
                        <mxPoint x="-30" y="1692.708984375" as="targetPoint"/>
                    </mxGeometry>
                </mxCell>
                <mxCell id="164" value="" style="group;fillColor=none;strokeColor=none;" vertex="1" connectable="0" parent="1">
                    <mxGeometry x="690" y="1590" width="391" height="90" as="geometry"/>
                </mxCell>
                <mxCell id="165" value="" style="group;strokeWidth=3;strokeColor=default;fillColor=none;" vertex="1" connectable="0" parent="164">
                    <mxGeometry x="151" width="240" height="90" as="geometry"/>
                </mxCell>
                <mxCell id="166" value="" style="edgeStyle=none;orthogonalLoop=1;jettySize=auto;html=1;fontFamily=Helvetica;fontSize=12;fontColor=default;strokeColor=#150404;endArrow=none;endFill=0;" edge="1" parent="165">
                    <mxGeometry width="80" relative="1" as="geometry">
                        <mxPoint as="sourcePoint"/>
                        <mxPoint x="210.00000000000003" as="targetPoint"/>
                        <Array as="points"/>
                    </mxGeometry>
                </mxCell>
                <mxCell id="167" value="" style="edgeStyle=none;orthogonalLoop=1;jettySize=auto;html=1;fontFamily=Helvetica;fontSize=12;fontColor=default;strokeColor=#150404;endArrow=none;endFill=0;" edge="1" parent="165">
                    <mxGeometry width="80" relative="1" as="geometry">
                        <mxPoint y="88.01999999999998" as="sourcePoint"/>
                        <mxPoint x="210.00000000000003" y="88.01999999999998" as="targetPoint"/>
                        <Array as="points"/>
                    </mxGeometry>
                </mxCell>
                <mxCell id="168" value="" style="edgeStyle=none;orthogonalLoop=1;jettySize=auto;html=1;fontFamily=Helvetica;fontSize=12;fontColor=default;strokeColor=#150404;endArrow=none;endFill=0;" edge="1" parent="165">
                    <mxGeometry width="80" relative="1" as="geometry">
                        <mxPoint as="sourcePoint"/>
                        <mxPoint y="90" as="targetPoint"/>
                        <Array as="points"/>
                    </mxGeometry>
                </mxCell>
                <mxCell id="169" value="" style="edgeStyle=none;orthogonalLoop=1;jettySize=auto;html=1;strokeColor=#150404;fontFamily=Helvetica;fontSize=12;fontColor=default;endArrow=none;endFill=0;" edge="1" parent="165">
                    <mxGeometry width="80" relative="1" as="geometry">
                        <mxPoint x="40" as="sourcePoint"/>
                        <mxPoint x="40" y="90" as="targetPoint"/>
                        <Array as="points"/>
                    </mxGeometry>
                </mxCell>
                <mxCell id="170" value="&lt;font style=&quot;font-size: 40px;&quot; face=&quot;Times New Roman&quot; color=&quot;#080707&quot;&gt;tbl-admin&lt;/font&gt;" style="text;strokeColor=none;align=center;fillColor=none;html=1;verticalAlign=middle;whiteSpace=wrap;rounded=0;pointerEvents=0;fontFamily=Helvetica;fontSize=12;fontColor=default;" vertex="1" parent="165">
                    <mxGeometry x="37" y="20" width="180" height="52.5" as="geometry"/>
                </mxCell>
                <mxCell id="171" style="edgeStyle=none;html=1;exitX=1;exitY=0.5;exitDx=0;exitDy=0;strokeColor=#0d0d0d;strokeWidth=2;fontFamily=Times New Roman;fontSize=26;fontColor=#080707;startArrow=none;startFill=0;endArrow=classic;endFill=1;" edge="1" parent="164">
                    <mxGeometry relative="1" as="geometry">
                        <mxPoint x="151" y="21.105263157894797" as="targetPoint"/>
                        <mxPoint y="21" as="sourcePoint"/>
                        <Array as="points">
                            <mxPoint x="-170" y="21"/>
                        </Array>
                    </mxGeometry>
                </mxCell>
                <mxCell id="172" style="edgeStyle=none;html=1;exitX=0;exitY=0.75;exitDx=0;exitDy=0;entryX=1;entryY=0.5;entryDx=0;entryDy=0;strokeColor=#0d0d0d;strokeWidth=2;fontFamily=Times New Roman;fontSize=26;fontColor=#080707;startArrow=none;startFill=0;endArrow=classic;endFill=1;" edge="1" parent="164">
                    <mxGeometry relative="1" as="geometry">
                        <mxPoint x="139.03999999999996" y="79.375" as="sourcePoint"/>
                        <mxPoint x="-152" y="80" as="targetPoint"/>
                        <Array as="points">
                            <mxPoint x="155.03999999999996" y="79"/>
                        </Array>
                    </mxGeometry>
                </mxCell>
                <mxCell id="174" style="edgeStyle=none;html=1;exitX=0.5;exitY=1;exitDx=0;exitDy=0;entryX=0.5;entryY=0;entryDx=0;entryDy=0;strokeColor=#130101;strokeWidth=2;fontSize=50;" edge="1" parent="1" source="116" target="130">
                    <mxGeometry relative="1" as="geometry"/>
                </mxCell>
                <mxCell id="175" style="edgeStyle=none;html=1;exitX=0.5;exitY=1;exitDx=0;exitDy=0;entryX=0.5;entryY=0;entryDx=0;entryDy=0;strokeColor=#130101;strokeWidth=2;fontSize=50;" edge="1" parent="1" source="130" target="136">
                    <mxGeometry relative="1" as="geometry"/>
                </mxCell>
                <mxCell id="178" style="edgeStyle=none;html=1;exitX=0.5;exitY=1;exitDx=0;exitDy=0;strokeColor=#130101;strokeWidth=2;fontSize=50;" edge="1" parent="1">
                    <mxGeometry relative="1" as="geometry">
                        <mxPoint x="435.5" y="2478" as="sourcePoint"/>
                        <mxPoint x="435" y="2660" as="targetPoint"/>
                    </mxGeometry>
                </mxCell>
                <mxCell id="179" style="edgeStyle=none;html=1;exitX=0.5;exitY=1;exitDx=0;exitDy=0;strokeColor=#130101;strokeWidth=2;fontSize=50;" edge="1" parent="1" source="142">
                    <mxGeometry relative="1" as="geometry">
                        <mxPoint x="437.66666666666697" y="3040" as="targetPoint"/>
                    </mxGeometry>
                </mxCell>
                <mxCell id="181" style="edgeStyle=orthogonalEdgeStyle;html=1;exitX=0.75;exitY=1;exitDx=0;exitDy=0;entryX=0;entryY=0.5;entryDx=0;entryDy=0;strokeColor=#130101;strokeWidth=2;fontSize=50;" edge="1" parent="1" source="160" target="130">
                    <mxGeometry relative="1" as="geometry"/>
                </mxCell>
                <mxCell id="182" style="edgeStyle=orthogonalEdgeStyle;html=1;exitX=0;exitY=1;exitDx=0;exitDy=0;entryX=0.623;entryY=1;entryDx=0;entryDy=0;entryPerimeter=0;strokeColor=#130101;strokeWidth=2;fontSize=50;" edge="1" parent="1" source="130" target="160">
                    <mxGeometry relative="1" as="geometry"/>
                </mxCell>
                <mxCell id="183" style="edgeStyle=orthogonalEdgeStyle;html=1;exitX=0.5;exitY=1;exitDx=0;exitDy=0;entryX=0;entryY=0.5;entryDx=0;entryDy=0;strokeColor=#130101;strokeWidth=2;fontSize=50;" edge="1" parent="1" source="160" target="136">
                    <mxGeometry relative="1" as="geometry"/>
                </mxCell>
                <mxCell id="184" style="edgeStyle=orthogonalEdgeStyle;html=1;exitX=0;exitY=1;exitDx=0;exitDy=0;entryX=0.4;entryY=1.091;entryDx=0;entryDy=0;entryPerimeter=0;strokeColor=#130101;strokeWidth=2;fontSize=50;" edge="1" parent="1" source="136" target="160">
                    <mxGeometry relative="1" as="geometry"/>
                </mxCell>
                <mxCell id="185" style="edgeStyle=orthogonalEdgeStyle;html=1;exitX=0.25;exitY=1;exitDx=0;exitDy=0;entryX=0;entryY=0.5;entryDx=0;entryDy=0;strokeColor=#130101;strokeWidth=2;fontSize=50;" edge="1" parent="1" source="160" target="142">
                    <mxGeometry relative="1" as="geometry"/>
                </mxCell>
                <mxCell id="186" style="edgeStyle=orthogonalEdgeStyle;html=1;exitX=0;exitY=1;exitDx=0;exitDy=0;entryX=0.16;entryY=1.018;entryDx=0;entryDy=0;entryPerimeter=0;strokeColor=#130101;strokeWidth=2;fontSize=50;" edge="1" parent="1" source="142" target="160">
                    <mxGeometry relative="1" as="geometry"/>
                </mxCell>
                <mxCell id="189" style="edgeStyle=orthogonalEdgeStyle;html=1;exitX=0;exitY=1;exitDx=0;exitDy=0;entryX=0;entryY=0.5;entryDx=0;entryDy=0;strokeColor=#130101;strokeWidth=2;fontSize=50;" edge="1" parent="1" source="160" target="148">
                    <mxGeometry relative="1" as="geometry"/>
                </mxCell>
                <mxCell id="190" style="edgeStyle=orthogonalEdgeStyle;html=1;exitX=0;exitY=1;exitDx=0;exitDy=0;entryX=0.061;entryY=1;entryDx=0;entryDy=0;entryPerimeter=0;strokeColor=#130101;strokeWidth=2;fontSize=50;" edge="1" parent="1" source="148" target="160">
                    <mxGeometry relative="1" as="geometry"/>
                </mxCell>
                <mxCell id="193" value="" style="group" vertex="1" connectable="0" parent="1">
                    <mxGeometry x="651" y="1960" width="490" height="112.5" as="geometry"/>
                </mxCell>
                <mxCell id="194" value="" style="group;strokeWidth=3;strokeColor=default;fillColor=none;" vertex="1" connectable="0" parent="193">
                    <mxGeometry x="180" width="310" height="90" as="geometry"/>
                </mxCell>
                <mxCell id="195" value="" style="edgeStyle=none;orthogonalLoop=1;jettySize=auto;html=1;fontFamily=Helvetica;fontSize=12;fontColor=default;strokeColor=#150404;endArrow=none;endFill=0;" edge="1" parent="194">
                    <mxGeometry width="80" relative="1" as="geometry">
                        <mxPoint as="sourcePoint"/>
                        <mxPoint x="253.07416879795394" as="targetPoint"/>
                        <Array as="points"/>
                    </mxGeometry>
                </mxCell>
                <mxCell id="196" value="" style="edgeStyle=none;orthogonalLoop=1;jettySize=auto;html=1;fontFamily=Helvetica;fontSize=12;fontColor=default;strokeColor=#150404;endArrow=none;endFill=0;" edge="1" parent="194">
                    <mxGeometry width="80" relative="1" as="geometry">
                        <mxPoint y="88.01999999999998" as="sourcePoint"/>
                        <mxPoint x="253.07416879795394" y="88.01999999999998" as="targetPoint"/>
                        <Array as="points"/>
                    </mxGeometry>
                </mxCell>
                <mxCell id="197" value="" style="edgeStyle=none;orthogonalLoop=1;jettySize=auto;html=1;fontFamily=Helvetica;fontSize=12;fontColor=default;strokeColor=#150404;endArrow=none;endFill=0;" edge="1" parent="194">
                    <mxGeometry width="80" relative="1" as="geometry">
                        <mxPoint as="sourcePoint"/>
                        <mxPoint y="90" as="targetPoint"/>
                        <Array as="points"/>
                    </mxGeometry>
                </mxCell>
                <mxCell id="198" value="" style="edgeStyle=none;orthogonalLoop=1;jettySize=auto;html=1;strokeColor=#150404;fontFamily=Helvetica;fontSize=12;fontColor=default;endArrow=none;endFill=0;" edge="1" parent="194">
                    <mxGeometry width="80" relative="1" as="geometry">
                        <mxPoint x="48.204603580562654" as="sourcePoint"/>
                        <mxPoint x="48.204603580562654" y="90" as="targetPoint"/>
                        <Array as="points"/>
                    </mxGeometry>
                </mxCell>
                <mxCell id="199" value="&lt;font style=&quot;font-size: 40px;&quot; face=&quot;Times New Roman&quot; color=&quot;#080707&quot;&gt;tbl-student&lt;/font&gt;" style="text;strokeColor=none;align=center;fillColor=none;html=1;verticalAlign=middle;whiteSpace=wrap;rounded=0;pointerEvents=0;fontFamily=Helvetica;fontSize=12;fontColor=default;" vertex="1" parent="194">
                    <mxGeometry x="44.5904" y="20" width="265.4096" height="52.5" as="geometry"/>
                </mxCell>
                <mxCell id="75" value="&lt;font style=&quot;font-size: 40px;&quot; face=&quot;Times New Roman&quot; color=&quot;#080707&quot;&gt;Reply&lt;/font&gt;" style="text;strokeColor=none;align=center;fillColor=none;html=1;verticalAlign=middle;whiteSpace=wrap;rounded=0;pointerEvents=0;fontFamily=Helvetica;fontSize=12;fontColor=default;" vertex="1" parent="193">
                    <mxGeometry x="-150" y="60" width="310" height="52.5" as="geometry"/>
                </mxCell>
                <mxCell id="202" value="&lt;font style=&quot;font-size: 40px;&quot; face=&quot;Times New Roman&quot; color=&quot;#080707&quot;&gt;Add Details&lt;/font&gt;" style="text;strokeColor=none;align=center;fillColor=none;html=1;verticalAlign=middle;whiteSpace=wrap;rounded=0;pointerEvents=0;fontFamily=Helvetica;fontSize=12;fontColor=default;" vertex="1" parent="1">
                    <mxGeometry x="500" y="1910" width="310" height="52.5" as="geometry"/>
                </mxCell>
                <mxCell id="205" style="edgeStyle=orthogonalEdgeStyle;html=1;exitX=1;exitY=0.5;exitDx=0;exitDy=0;strokeColor=#130101;strokeWidth=2;fontSize=50;" edge="1" parent="1">
                    <mxGeometry relative="1" as="geometry">
                        <mxPoint x="830.0000000000005" y="1972" as="targetPoint"/>
                        <mxPoint x="540.0000000000005" y="1972" as="sourcePoint"/>
                    </mxGeometry>
                </mxCell>
                <mxCell id="206" style="edgeStyle=orthogonalEdgeStyle;html=1;strokeColor=#130101;strokeWidth=2;fontSize=50;" edge="1" parent="1">
                    <mxGeometry relative="1" as="geometry">
                        <mxPoint x="540" y="2020" as="targetPoint"/>
                        <mxPoint x="830" y="2020" as="sourcePoint"/>
                    </mxGeometry>
                </mxCell>
                <mxCell id="207" style="edgeStyle=orthogonalEdgeStyle;html=1;exitX=1;exitY=0.5;exitDx=0;exitDy=0;strokeColor=#130101;strokeWidth=2;fontSize=50;" edge="1" parent="1" source="136">
                    <mxGeometry relative="1" as="geometry">
                        <mxPoint x="870.0000000000005" y="2050" as="targetPoint"/>
                    </mxGeometry>
                </mxCell>
                <mxCell id="211" style="edgeStyle=orthogonalEdgeStyle;html=1;strokeColor=#130101;strokeWidth=2;fontSize=50;" edge="1" parent="1" target="136">
                    <mxGeometry relative="1" as="geometry">
                        <mxPoint x="530" y="2480" as="targetPoint"/>
                        <mxPoint x="970" y="2050" as="sourcePoint"/>
                        <Array as="points">
                            <mxPoint x="930" y="2050"/>
                            <mxPoint x="930" y="2470"/>
                        </Array>
                    </mxGeometry>
                </mxCell>
                <mxCell id="212" style="edgeStyle=orthogonalEdgeStyle;html=1;exitX=1;exitY=0.5;exitDx=0;exitDy=0;strokeColor=#130101;strokeWidth=2;fontSize=50;" edge="1" parent="1" source="142">
                    <mxGeometry relative="1" as="geometry">
                        <mxPoint x="1028" y="2040" as="targetPoint"/>
                        <Array as="points">
                            <mxPoint x="1028" y="2760"/>
                        </Array>
                    </mxGeometry>
                </mxCell>
                <mxCell id="213" style="edgeStyle=orthogonalEdgeStyle;html=1;entryX=1.009;entryY=0.33;entryDx=0;entryDy=0;entryPerimeter=0;strokeColor=#130101;strokeWidth=2;fontSize=50;" edge="1" parent="1" target="142">
                    <mxGeometry relative="1" as="geometry">
                        <mxPoint x="974" y="2050" as="sourcePoint"/>
                        <Array as="points">
                            <mxPoint x="974" y="2726"/>
                        </Array>
                    </mxGeometry>
                </mxCell>
                <mxCell id="214" style="edgeStyle=orthogonalEdgeStyle;html=1;exitX=1;exitY=0.5;exitDx=0;exitDy=0;entryX=0.865;entryY=1.029;entryDx=0;entryDy=0;entryPerimeter=0;strokeColor=#130101;strokeWidth=2;fontSize=50;" edge="1" parent="1" source="148" target="199">
                    <mxGeometry relative="1" as="geometry"/>
                </mxCell>
                <mxCell id="215" style="edgeStyle=orthogonalEdgeStyle;html=1;entryX=0.747;entryY=0.95;entryDx=0;entryDy=0;entryPerimeter=0;strokeColor=#130101;strokeWidth=2;fontSize=50;" edge="1" parent="1" target="148">
                    <mxGeometry relative="1" as="geometry">
                        <mxPoint x="1060" y="2050" as="sourcePoint"/>
                        <Array as="points">
                            <mxPoint x="1081" y="3230"/>
                        </Array>
                    </mxGeometry>
                </mxCell>
                <mxCell id="218" value="&lt;font style=&quot;font-size: 40px;&quot; face=&quot;Times New Roman&quot; color=&quot;#080707&quot;&gt;Reply&lt;/font&gt;" style="text;strokeColor=none;align=center;fillColor=none;html=1;verticalAlign=middle;whiteSpace=wrap;rounded=0;pointerEvents=0;fontFamily=Helvetica;fontSize=12;fontColor=default;" vertex="1" parent="1">
                    <mxGeometry x="510" y="2480" width="310" height="52.5" as="geometry"/>
                </mxCell>
                <mxCell id="219" value="&lt;font style=&quot;font-size: 40px;&quot; face=&quot;Times New Roman&quot; color=&quot;#080707&quot;&gt;Reply&lt;/font&gt;" style="text;strokeColor=none;align=center;fillColor=none;html=1;verticalAlign=middle;whiteSpace=wrap;rounded=0;pointerEvents=0;fontFamily=Helvetica;fontSize=12;fontColor=default;" vertex="1" parent="1">
                    <mxGeometry x="512" y="2770" width="310" height="52.5" as="geometry"/>
                </mxCell>
                <mxCell id="220" value="&lt;font style=&quot;font-size: 40px;&quot; face=&quot;Times New Roman&quot; color=&quot;#080707&quot;&gt;Reply&lt;/font&gt;" style="text;strokeColor=none;align=center;fillColor=none;html=1;verticalAlign=middle;whiteSpace=wrap;rounded=0;pointerEvents=0;fontFamily=Helvetica;fontSize=12;fontColor=default;" vertex="1" parent="1">
                    <mxGeometry x="517" y="3250" width="310" height="52.5" as="geometry"/>
                </mxCell>
                <mxCell id="221" value="&lt;font style=&quot;font-size: 40px;&quot; face=&quot;Times New Roman&quot; color=&quot;#080707&quot;&gt;View Details&lt;/font&gt;" style="text;strokeColor=none;align=center;fillColor=none;html=1;verticalAlign=middle;whiteSpace=wrap;rounded=0;pointerEvents=0;fontFamily=Helvetica;fontSize=12;fontColor=default;" vertex="1" parent="1">
                    <mxGeometry x="530" y="2310" width="310" height="52.5" as="geometry"/>
                </mxCell>
                <mxCell id="222" value="&lt;font style=&quot;font-size: 40px;&quot; face=&quot;Times New Roman&quot; color=&quot;#080707&quot;&gt;Edit Details&lt;/font&gt;" style="text;strokeColor=none;align=center;fillColor=none;html=1;verticalAlign=middle;whiteSpace=wrap;rounded=0;pointerEvents=0;fontFamily=Helvetica;fontSize=12;fontColor=default;" vertex="1" parent="1">
                    <mxGeometry x="570" y="2660" width="310" height="52.5" as="geometry"/>
                </mxCell>
                <mxCell id="223" value="&lt;font style=&quot;font-size: 40px;&quot; face=&quot;Times New Roman&quot; color=&quot;#080707&quot;&gt;Delete Details&lt;/font&gt;" style="text;strokeColor=none;align=center;fillColor=none;html=1;verticalAlign=middle;whiteSpace=wrap;rounded=0;pointerEvents=0;fontFamily=Helvetica;fontSize=12;fontColor=default;" vertex="1" parent="1">
                    <mxGeometry x="580" y="3080" width="310" height="52.5" as="geometry"/>
                </mxCell>
            </root>
        </mxGraphModel>
    </diagram>
</mxfile>